<svg width="60" height="74" viewBox="0 0 60 74" fill="none" xmlns="http://www.w3.org/2000/svg">
<path d="M5.5 28.5L18.5 16L24 11.5L27.5 8.5L29.5 7L31 5.5L31.5 4L31 1L45.5 17L52.5 25L56 29L58 31.5L59 33.5L59.5 35.5V37L58.5 41.5L52 49L33 66.5L30.5 68.5L30 69L29.5 70V71.5V72L30 73L29 73.5L2.5 43.5L1 40.5V40L0.5 39V38.5V37.5L1 35.5L1.5 34L2.5 32.5L5.5 28.5Z" fill="white"/>
<path d="M20 28L40 46.5" stroke="#FA201B"/>
<path d="M20.75 47.25L39.25 27.25" stroke="#FA201B"/>
<path d="M30 6.5C31.5 6 32 3 31 1" stroke="black"/>
<path d="M31 67.5C29.0267 68.0455 28.3689 71.3182 29.6844 73.5" stroke="black"/>
<path d="M31 1L51.5 24C57.5 32 66 35 51.5 49C35.3213 64.6208 29.5 68.1667 29.5 69" stroke="black"/>
<path d="M29.4939 73.5L8.9939 50.5C2.9939 42.5 -5.5061 39.5 8.9939 25.5C25.1726 9.87919 30.9939 6.33333 30.9939 5.5" stroke="black"/>
</svg>
